<?xml version="1.0" encoding="utf-8"?>
<!-- Generator: Adobe Illustrator 23.0.1, SVG Export Plug-In . SVG Version: 6.00 Build 0)  -->
<svg version="1.1" xmlns="http://www.w3.org/2000/svg" xmlns:xlink="http://www.w3.org/1999/xlink" x="0px" y="0px"
	 viewBox="0 0 352 355.05" style="enable-background:new 0 0 352 355.05;" xml:space="preserve">
<style type="text/css">
	.st0{fill:#F57E20;}
	.st1{fill:#FFFFFF;}
</style>
<g id="Layer_1">
	<path class="st0" d="M331.59,355.05H20.41C9.14,355.05,0,345.91,0,334.64V0h352v334.64C352,345.91,342.86,355.05,331.59,355.05z"/>
	<g>
		<g>
			<g>
				<path class="st1" d="M60.19,313.25c-5.54,0-9.81-0.92-12.81-2.77c-3-1.85-4.5-3.92-4.5-6.23c0-0.88,0.29-1.75,0.88-2.61
					c0.59-0.86,1.2-1.51,1.83-1.95c0.63-0.44,1.01-0.62,1.13-0.54c1.43,1.76,3.36,3.23,5.79,4.41c2.43,1.17,4.96,1.76,7.59,1.76
					c2.62,0,4.64-0.47,6.04-1.42c1.41-0.94,2.11-2.3,2.11-4.06c0-0.67-0.16-1.3-0.47-1.89c-0.31-0.59-0.67-1.04-1.07-1.35
					c-0.4-0.31-1.06-0.64-1.98-0.98c-0.92-0.33-1.66-0.57-2.2-0.69c-0.55-0.13-1.47-0.34-2.77-0.63c-0.55-0.13-0.97-0.23-1.26-0.31
					c-2.1-0.46-3.89-0.97-5.38-1.51c-1.49-0.54-2.99-1.32-4.5-2.33c-1.51-1.01-2.67-2.32-3.46-3.93c-0.8-1.62-1.2-3.51-1.2-5.7
					c0-4.2,1.59-7.55,4.78-10.07c3.1-2.52,7.34-3.78,12.72-3.78c5.04,0,8.98,0.83,11.83,2.49c2.85,1.66,4.28,3.56,4.28,5.7
					c0,0.97-0.34,1.9-1.01,2.8c-0.67,0.9-1.34,1.56-2.01,1.98c-0.63,0.42-0.99,0.59-1.07,0.5c-1.38-1.6-3.14-2.92-5.26-3.97
					c-2.12-1.05-4.33-1.57-6.64-1.57c-2.43,0-4.34,0.48-5.73,1.45c-1.38,0.97-2.08,2.27-2.08,3.9c0,0.42,0.05,0.81,0.16,1.16
					c0.1,0.36,0.26,0.68,0.47,0.98c0.21,0.29,0.42,0.55,0.63,0.76c0.21,0.21,0.53,0.41,0.98,0.6c0.44,0.19,0.81,0.35,1.1,0.47
					c0.29,0.13,0.73,0.26,1.32,0.41c0.59,0.15,1.07,0.26,1.45,0.35c0.38,0.08,0.94,0.21,1.7,0.38c0.76,0.17,1.34,0.29,1.76,0.38
					c4.66,1.01,8.35,2.56,11.08,4.66c2.73,2.1,4.09,5.1,4.09,9c0,4.49-1.58,7.97-4.75,10.45C70.59,312.02,66.07,313.25,60.19,313.25
					z"/>
				<path class="st1" d="M106.92,313.25c-6.8,0-12.33-2.15-16.59-6.45c-4.26-4.3-6.39-9.89-6.39-16.78c0-6.84,2.14-12.44,6.42-16.81
					c4.28-4.36,9.84-6.55,16.68-6.55c5.37,0,9.59,1.13,12.65,3.4c3.06,2.27,4.6,4.51,4.6,6.74c0,1.34-0.48,2.45-1.45,3.31
					c-0.97,0.86-1.91,1.44-2.83,1.73c-1.01,0.29-1.55,0.34-1.64,0.13c-1.09-1.89-2.61-3.38-4.56-4.47
					c-1.95-1.09-4.06-1.64-6.33-1.64c-3.78,0-6.89,1.31-9.35,3.93c-2.45,2.62-3.68,6.01-3.68,10.17s1.24,7.54,3.71,10.17
					c2.48,2.62,5.6,3.93,9.38,3.93c2.6,0,4.89-0.6,6.86-1.79c1.97-1.2,3.4-2.86,4.28-5c0.08-0.17,0.62-0.12,1.61,0.16
					c0.99,0.27,1.98,0.85,2.99,1.73c1.01,0.88,1.51,1.99,1.51,3.34c0,2.35-1.6,4.73-4.78,7.14
					C116.83,312.05,112.46,313.25,106.92,313.25z"/>
				<path class="st1" d="M169.71,306.71c-4.32,4.36-9.87,6.55-16.65,6.55c-6.78,0-12.32-2.16-16.62-6.48
					c-4.3-4.32-6.45-9.9-6.45-16.74c0-6.84,2.17-12.44,6.52-16.81c4.34-4.36,9.89-6.55,16.65-6.55c6.8,0,12.34,2.17,16.62,6.52
					c4.28,4.34,6.42,9.93,6.42,16.74C176.19,296.75,174.03,302.34,169.71,306.71z M143.81,300.26c2.41,2.62,5.53,3.93,9.35,3.93
					c3.82,0,6.94-1.31,9.35-3.93c2.41-2.62,3.62-6.03,3.62-10.23c0-4.24-1.22-7.69-3.65-10.36c-2.43-2.66-5.56-4-9.38-4
					c-3.82,0-6.92,1.3-9.32,3.9c-2.39,2.6-3.59,6.07-3.59,10.39C140.19,294.2,141.39,297.63,143.81,300.26z"/>
				<path class="st1" d="M215.94,308.12c-3.27,3.34-8.08,5-14.41,5c-6.34,0-11.13-1.65-14.38-4.94c-3.25-3.29-4.88-8.17-4.88-14.64
					v-21.59c0-3.1,1.49-4.66,4.47-4.66h1.32c2.94,0,4.41,1.55,4.41,4.66v21.47c0,7.26,3.04,10.87,9.13,10.83
					c6.04,0.04,9.06-3.59,9.06-10.89v-21.4c0-3.1,1.49-4.66,4.47-4.66h1.38c2.9,0,4.34,1.55,4.34,4.66v21.47
					C220.85,299.89,219.21,304.79,215.94,308.12z"/>
				<path class="st1" d="M233.82,312.62c-2.85,0-4.28-1.53-4.28-4.6v-34.81c0-1.8,0.46-3.19,1.38-4.15c0.92-1.01,2.22-1.51,3.9-1.51
					h11.71c5.96,0,10.52,1.3,13.69,3.9c3.17,2.6,4.75,6.36,4.75,11.27c0,10.07-6.15,15.11-18.44,15.11h-6.74v10.2
					c0,3.11-1.49,4.64-4.47,4.6H233.82z M239.61,275.55v14.6h6.8c2.77,0,4.9-0.64,6.39-1.92c1.49-1.28,2.24-3.09,2.24-5.45
					c0-4.87-2.9-7.28-8.69-7.24H239.61z"/>
				<path class="st1" d="M287.96,312.62c-2.9,0-4.34-1.53-4.34-4.6v-13.66l-15.67-23.1c-0.13-0.25-0.01-0.68,0.35-1.29
					c0.36-0.61,1.09-1.21,2.2-1.79c1.11-0.59,2.45-0.88,4-0.88c1.93,0,3.55,1.18,4.85,3.52l9.38,15.42l9.57-15.36
					c1.38-2.39,3.02-3.59,4.91-3.59c1.38,0,2.61,0.29,3.68,0.88c1.07,0.59,1.79,1.2,2.17,1.83c0.38,0.63,0.5,1.05,0.38,1.26
					l-15.55,23.1v13.66c0,3.11-1.51,4.64-4.53,4.6H287.96z"/>
			</g>
		</g>
		<path class="st1" d="M170.8,312.04c0-0.09,0-0.18,0-0.26"/>
		<g>
			<g>
				<path class="st1" d="M189.91,242.63c-8.85-0.09-43.98-1.67-67.52-20.51c-11.43-9.14-18.28-22.83-19.3-38.55
					c-1.05-16.22,4.33-33.17,15.16-47.72c16.2-21.76,15.18-33.41,11.49-48.39c1.41-0.67,6.2-1.83,12.32-1.83
					c5.76,0,16.48,1.08,23.52,8.29c7.13,7.32,9.93,14.82,9.06,24.34c-0.99,10.84-6.74,24.63-18.11,43.41
					c-6.81,11.25-13.05,34.16,6.81,48.7l0.31,0.23h0.04c6.24,4.24,18.16,8.73,26.92,8.73c5.1,0,10.53-0.39,10.53-5.05
					c0-3.85-4.39-4.63-10.46-5.71c-1.18-0.21-2.44-0.44-3.76-0.7c-14.07-2.76-30.22-8.32-30.22-26.97
					c0-19.44,13.85-29.72,40.06-29.72c21.9,0,34.46,5.99,34.46,16.42c0,7.34-7.84,14.22-10.02,15.35
					c-6.94-5.1-16.51-8.49-24.02-8.49c-4.96,0-10.25,0.39-10.25,5.05c0,3.32,4.24,4.03,10.1,5.02c1.63,0.27,3.47,0.59,5.37,0.97
					c21.1,4.49,30.93,12.97,30.93,26.69c0,20.18-13.58,30.12-41.52,30.39l-1.91,0.02L189.91,242.63z"/>
				<path class="st1" d="M204.38,145.62c-11.76,0-19.06-6.28-19.06-16.38c0-0.49,0.04-1.38,0.05-1.55
					c0.27-4.72,0.56-7.72,3.41-14.62c4-9.69,7.94-13.98,9.76-15.44c0.01,0.6,0.02,1.33,0.02,2.01c0.01,3.49,0.03,8.78,1.07,12.78
					l0.26,1.01l1.25-0.17c1.07-0.15,1.43-0.2,2.65-0.2c6.84,0,13.56,2.67,17.97,7.14c2.82,2.86,4.35,6.21,4.3,9.42
					C225.98,135.79,216.02,145.62,204.38,145.62z"/>
			</g>
		</g>
	</g>
</g>
<g id="Layer_2">
</g>
</svg>
